<?xml version="1.0" encoding="UTF-8"?>
<svg id="Capa_1" xmlns="http://www.w3.org/2000/svg" xmlns:xlink="http://www.w3.org/1999/xlink" version="1.1" viewBox="0 0 1366 340.84">
  <!-- Generator: Adobe Illustrator 29.5.1, SVG Export Plug-In . SVG Version: 2.1.0 Build 141)  -->
  <defs>
    <style>
      .st0 {
        fill: #10e15c;
      }

      .st1 {
        fill: #fff;
      }

      .st2 {
        fill: url(#Degradado_sin_nombre_10);
      }
    </style>
    <linearGradient id="Degradado_sin_nombre_10" data-name="Degradado sin nombre 10" x1="254.36" y1="78.55" x2="366.11" y2="255.91" gradientUnits="userSpaceOnUse">
      <stop offset="0" stop-color="#fff" stop-opacity=".4"/>
      <stop offset=".03" stop-color="#fff" stop-opacity=".37"/>
      <stop offset=".27" stop-color="#fff" stop-opacity=".17"/>
      <stop offset=".44" stop-color="#fff" stop-opacity=".05"/>
      <stop offset=".54" stop-color="#fff" stop-opacity="0"/>
      <stop offset=".61" stop-color="#fff" stop-opacity=".03"/>
      <stop offset=".72" stop-color="#fff" stop-opacity=".11"/>
      <stop offset=".86" stop-color="#fff" stop-opacity=".23"/>
      <stop offset="1" stop-color="#fff" stop-opacity=".4"/>
    </linearGradient>
  </defs>
  <path class="st2" d="M373.68,260.52c0,5.13-4.25,9.29-9.49,9.29h-112.37c-5.24,0-9.49-4.16-9.49-9.29V66.85c0-5.13,4.25-9.29,9.49-9.29h112.37c5.24,0,9.49,4.16,9.49,9.29v193.67Z"/>
  <path class="st1" d="M542.97,260.59h-46v-83.96c0-10.16-1.66-18.01-4.99-23.55-3.33-5.54-9.7-8.31-19.12-8.31-9.98,0-16.86,2.82-20.64,8.45-3.79,5.64-5.68,13.53-5.68,23.69v83.69h-46V106.79h42.95v16.35h.55c8.87-14.41,22.81-21.62,41.84-21.62,6.65,0,13.67,1.2,21.06,3.6,7.39,2.4,13.48,5.64,18.29,9.7,11.82,9.79,17.73,26.32,17.73,49.6v96.16Z"/>
  <path class="st1" d="M715.87,185.49c0,4.43-.37,8.5-1.11,12.19h-115.28c1.29,8.87,5.31,15.93,12.05,21.2,6.74,5.27,14.73,7.9,23.97,7.9,11.08,0,20.41-4.8,27.99-14.41h47.11c-6.84,15.89-16.86,28.73-30.07,38.52-13.21,9.79-28.22,14.69-45.03,14.69-22.54,0-41.75-7.94-57.64-23.83-15.89-15.89-23.83-35.1-23.83-57.64s7.85-41.93,23.55-58.19c15.7-16.25,34.73-24.39,57.08-24.39s42.63,8.13,58.05,24.39c15.42,16.26,23.14,36.12,23.14,59.58ZM669.87,166.65c-1.85-8.13-6.01-14.55-12.47-19.26-6.47-4.71-13.95-7.07-22.45-7.07s-15.98,2.36-22.45,7.07c-6.47,4.71-10.63,11.13-12.47,19.26h69.83Z"/>
  <path class="st1" d="M885.74,202.11c-4.43,18.84-14.13,34.13-29.1,45.86-14.96,11.73-32.14,17.6-51.54,17.6-22.91,0-42.36-7.94-58.33-23.83-15.98-15.89-23.97-35.37-23.97-58.47s7.85-42.03,23.55-57.92c15.7-15.89,34.92-23.83,57.64-23.83,19.95,0,37.5,5.92,52.65,17.74,15.15,11.82,24.75,27.43,28.82,46.83h-46.55c-6.65-14.41-18.11-21.61-34.36-21.61-10.72,0-19.31,3.79-25.77,11.36-6.47,7.58-9.7,16.81-9.7,27.71s3.37,20.37,10.11,27.85c6.74,7.48,15.56,11.22,26.46,11.22,14.96,0,26.05-6.83,33.25-20.51h46.83Z"/>
  <path class="st1" d="M220.52,188.17c-5.91,24.2-18.43,43.69-37.55,58.47-19.12,14.78-41.15,22.17-66.09,22.17-29.93,0-55.42-10.3-76.48-30.9-21.06-20.6-31.59-45.86-31.59-75.79s10.44-55.1,31.31-75.51c20.87-20.41,46.28-30.62,76.21-30.62,18.66,0,35.84,4.16,51.54,12.47,15.7,8.31,28.63,20.23,38.8,35.75,7.39,11.08,12.01,22.26,13.86,33.53h-54.87c-4.07-10.71-10.53-19.35-19.4-25.91-8.87-6.56-18.94-9.84-30.2-9.84-16.07,0-29.23,5.87-39.49,17.6-10.25,11.73-15.38,25.82-15.38,42.26s5.13,30.72,15.38,42.81c10.25,12.1,23.51,18.15,39.77,18.15,11.08,0,20.87-3.14,29.37-9.42,8.5-6.28,15.15-14.69,19.95-25.22h54.87Z"/>
  <g>
    <g>
      <path class="st0" d="M317.06,187.82c-1.82.8-3.91.77-5.69-.11-5.54-2.75-9.72-7.84-12.4-13.95-3-6.84-3.24-13.39-1.85-18.52.53-1.98,1.94-3.6,3.81-4.43l5.33-2.34-10.19-23.19-.89.39c-.55.24-1.05.56-1.48.94-2.08,1.52-4,3.16-5.74,4.94-4.37,4.46-7.66,9.43-9.88,14.9-2.22,5.48-3.25,11.3-3.08,17.49.17,6.18,1.6,12.34,4.29,18.46,2.69,6.12,6.25,11.34,10.69,15.65,4.44,4.31,9.42,7.5,14.96,9.56,5.53,2.07,11.42,3,17.66,2.8,2.56-.08,5.14-.4,7.74-.92h0c.43-.09.85-.21,1.27-.39l1.08-.48-10.19-23.19-5.44,2.39Z"/>
      <path class="st0" d="M311.33,146.24c2.93-1.29,4.26-4.7,2.97-7.62l-5.53-12.59c-1.29-2.93-4.7-4.26-7.62-2.97l-1.53.67,10.19,23.19,1.53-.67Z"/>
      <path class="st0" d="M340.53,198.85l-5.53-12.59c-1.29-2.93-4.7-4.26-7.62-2.97l-1.34.59,10.19,23.19,1.34-.59c2.93-1.29,4.26-4.7,2.97-7.62Z"/>
    </g>
    <path class="st0" d="M368.53,47.73h-121.05c-9.67,0-17.5,7.84-17.5,17.5v221.06c0,9.67,7.84,17.5,17.5,17.5h121.05c9.67,0,17.5-7.84,17.5-17.5V65.23c0-9.67-7.84-17.5-17.5-17.5ZM317.24,288.53c0,2.28-1.84,4.12-4.12,4.12h-10.24c-2.28,0-4.12-1.84-4.12-4.12v-10.24c0-2.28,1.84-4.12,4.12-4.12h10.24c2.28,0,4.12,1.84,4.12,4.12v10.24ZM371.36,257.11c0,4.95-4.1,8.97-9.16,8.97h-108.4c-5.06,0-9.16-4.01-9.16-8.97V70.27c0-4.95,4.1-8.97,9.16-8.97h108.4c5.06,0,9.16,4.01,9.16,8.97v186.84Z"/>
  </g>
  <path class="st1" d="M965.71,142.45v-.74h.38c3.08-5.64,6.87-10.94,11.36-15.89,6.96-7.68,14.91-13.47,23.83-17.41v-1.61h-35.57v-51.27h-46.42v51.27h-35.57v34.92h35.57v118.88h46.42v-34.9c-6.48-12.25-9.73-26.27-9.73-42.05s3.25-29.03,9.73-41.19Z"/>
  <g>
    <path class="st0" d="M1196.85,3.27c-68.15,0-126.68,41.14-152.14,99.93,4.86.88,9.57,2.3,14.12,4.29,8.17,3.58,14.36,8.95,18.59,16.11h.55v-16.25h45.71v152.83h-45.71v-16.52h-.55c-3.86,7.34-9.96,12.81-18.31,16.38-.19.08-.39.15-.59.23,29.66,44.85,80.53,74.44,138.33,74.44,91.53,0,165.73-74.2,165.73-165.73S1288.37,3.27,1196.85,3.27Z"/>
    <path class="st0" d="M1077.96,183.64c0-11.2-3.63-20.47-10.88-27.81-7.25-7.34-16.48-11.01-27.67-11.01s-20.06,3.81-27.12,11.43c-7.07,7.62-10.6,16.93-10.6,27.95s3.67,19.74,11.01,27.26c7.34,7.53,16.34,11.29,26.99,11.29s20.14-3.76,27.4-11.29c7.25-7.53,10.88-16.8,10.88-27.81Z"/>
    <path class="st1" d="M1278.01,278.13h-160.18v-45.11c15.54-10.02,28.64-19.18,39.28-27.46,10.63-8.29,20.66-17.54,30.07-27.77,20.87-22.71,31.3-42.04,31.3-58,0-6.55-1.95-11.86-5.83-15.96-3.89-4.09-9.1-6.14-15.65-6.14-16.16,0-24.86,11.97-26.08,35.9h-55.24c.61-21.89,5.11-39.28,13.5-52.17,7.37-11.46,17.29-20.1,29.77-25.93,12.48-5.83,25.88-8.75,40.2-8.75,15.54,0,29.77,3.33,42.65,9.97,12.89,6.65,22.5,16.62,28.84,29.92,3.88,8.8,5.83,17.49,5.83,26.08,0,11.66-2.15,23.01-6.44,34.06-4.3,11.05-10.69,21.79-19.18,32.22-8.49,10.43-16.16,19.03-23.02,25.78-6.86,6.75-15.8,14.94-26.85,24.55h77.02v48.79Z"/>
  </g>
</svg>